<svg width="135" height="40" viewBox="0 0 135 40" fill="none" xmlns="http://www.w3.org/2000/svg">
<g clip-path="url(#clip0_16_10)">
<path d="M130 0H5C2.23858 0 0 2.23858 0 5V35C0 37.7614 2.23858 40 5 40H130C132.761 40 135 37.7614 135 35V5C135 2.23858 132.761 0 130 0Z" fill="black"/>
<path d="M129.98 0.799988C131.094 0.799988 132.162 1.2425 132.95 2.03015C133.737 2.8178 134.18 3.88609 134.18 5V35C134.18 36.1139 133.737 37.1822 132.95 37.9698C132.162 38.7575 131.094 39.2 129.98 39.2H4.97998C3.86607 39.2 2.79778 38.7575 2.01013 37.9698C1.22248 37.1822 0.779968 36.1139 0.779968 35V5C0.779968 3.88609 1.22248 2.8178 2.01013 2.03015C2.79778 1.2425 3.86607 0.799988 4.97998 0.799988H129.98ZM129.98 0H4.97998C3.6539 0 2.38214 0.526796 1.44446 1.46448C0.506776 2.40216 -0.0200195 3.67392 -0.0200195 5V35C-0.0200195 36.3261 0.506776 37.5978 1.44446 38.5355C2.38214 39.4732 3.6539 40 4.97998 40H129.98C131.306 40 132.578 39.4732 133.516 38.5355C134.453 37.5978 134.98 36.3261 134.98 35V5C134.98 3.67392 134.453 2.40216 133.516 1.46448C132.578 0.526796 131.306 0 129.98 0Z" fill="#A7A6A6"/>
<path d="M68.14 21.7501C67.3003 21.7541 66.4805 22.0067 65.7843 22.4761C65.088 22.9455 64.5464 23.6106 64.2278 24.3876C63.9092 25.1645 63.8279 26.0184 63.9941 26.8415C64.1603 27.6646 64.5667 28.42 65.1618 29.0124C65.757 29.6047 66.5143 30.0075 67.3382 30.1699C68.162 30.3323 69.0156 30.2469 69.791 29.9247C70.5664 29.6024 71.229 29.0577 71.6951 28.3592C72.1612 27.6607 72.41 26.8399 72.41 26.0001C72.4181 25.4381 72.3131 24.8801 72.1012 24.3595C71.8892 23.8389 71.5747 23.3662 71.1762 22.9697C70.7778 22.5731 70.3037 22.2608 69.7821 22.0513C69.2605 21.8418 68.702 21.7394 68.14 21.7501ZM68.14 28.5801C67.6236 28.6163 67.1082 28.4962 66.6609 28.2355C66.2137 27.9749 65.8551 27.5857 65.632 27.1186C65.4088 26.6515 65.3314 26.128 65.4097 25.6163C65.4879 25.1046 65.7184 24.6282 66.071 24.2492C66.4235 23.8701 66.882 23.606 67.3867 23.4909C67.8915 23.3759 68.4191 23.4154 68.9012 23.6042C69.3832 23.7931 69.7972 24.1226 70.0895 24.5499C70.3817 24.9771 70.5387 25.4825 70.54 26.0001C70.5561 26.3282 70.5063 26.6561 70.3937 26.9646C70.2811 27.2731 70.1078 27.5559 69.8841 27.7963C69.6604 28.0368 69.3909 28.23 69.0913 28.3646C68.7918 28.4993 68.4683 28.5725 68.14 28.5801ZM58.83 21.7501C57.9903 21.7541 57.1705 22.0067 56.4743 22.4761C55.778 22.9455 55.2364 23.6106 54.9178 24.3876C54.5992 25.1645 54.5178 26.0184 54.6841 26.8415C54.8503 27.6646 55.2567 28.42 55.8518 29.0124C56.447 29.6047 57.2043 30.0075 58.0282 30.1699C58.852 30.3323 59.7055 30.2469 60.481 29.9247C61.2564 29.6024 61.919 29.0577 62.3851 28.3592C62.8512 27.6607 63.1 26.8399 63.1 26.0001C63.1082 25.4372 63.0029 24.8784 62.7903 24.3571C62.5777 23.8358 62.2622 23.3627 61.8628 22.966C61.4633 22.5693 60.9879 22.2572 60.4651 22.0483C59.9424 21.8394 59.3828 21.738 58.82 21.7501H58.83ZM58.83 28.5801C58.3136 28.6163 57.7982 28.4962 57.351 28.2355C56.9037 27.9749 56.5451 27.5857 56.322 27.1186C56.0988 26.6515 56.0214 26.128 56.0997 25.6163C56.178 25.1046 56.4084 24.6282 56.761 24.2492C57.1136 23.8701 57.572 23.606 58.0768 23.4909C58.5815 23.3759 59.1091 23.4154 59.5912 23.6042C60.0732 23.7931 60.4872 24.1226 60.7795 24.5499C61.0717 24.9771 61.2287 25.4825 61.23 26.0001C61.2461 26.329 61.1961 26.6577 61.0828 26.9669C60.9695 27.276 60.7954 27.5592 60.5706 27.7998C60.3459 28.0404 60.0751 28.2335 59.7744 28.3675C59.4737 28.5016 59.1491 28.5738 58.82 28.5801H58.83ZM47.75 23.0501V24.8502H52.07C52.0022 25.698 51.6498 26.4979 51.07 27.1201C50.6378 27.5604 50.1182 27.9053 49.5447 28.1326C48.9712 28.3599 48.3564 28.4647 47.74 28.4402C46.467 28.4402 45.246 27.9344 44.3459 27.0343C43.4457 26.1341 42.94 24.9132 42.94 23.6402C42.94 22.3671 43.4457 21.1462 44.3459 20.246C45.246 19.3459 46.467 18.8401 47.74 18.8401C48.9509 18.8256 50.1187 19.2891 50.99 20.1302L52.26 18.8601C51.6643 18.2702 50.9567 17.8053 50.1787 17.4927C49.4008 17.1802 48.5682 17.0263 47.73 17.0402C46.841 17.0056 45.9541 17.1508 45.1226 17.4671C44.2911 17.7835 43.532 18.2644 42.8907 18.8812C42.2495 19.4979 41.7394 20.2377 41.391 21.0563C41.0425 21.8749 40.8629 22.7555 40.8629 23.6451C40.8629 24.5348 41.0425 25.4153 41.391 26.2339C41.7394 27.0525 42.2495 27.7924 42.8907 28.4091C43.532 29.0259 44.2911 29.5068 45.1226 29.8232C45.9541 30.1395 46.841 30.2847 47.73 30.2501C48.5859 30.2888 49.4402 30.1437 50.2354 29.8246C51.0306 29.5055 51.7482 29.0198 52.34 28.4001C53.3876 27.2491 53.947 25.7359 53.9 24.1801C53.9032 23.8011 53.8697 23.4227 53.8 23.0501H47.75ZM93.06 24.4502C92.7992 23.6829 92.3115 23.0129 91.6615 22.529C91.0115 22.0451 90.2298 21.77 89.42 21.7401C88.873 21.7391 88.3316 21.8502 87.8292 22.0667C87.3269 22.2831 86.8743 22.6004 86.4994 22.9987C86.1245 23.397 85.8353 23.868 85.6496 24.3825C85.4639 24.8971 85.3858 25.4442 85.42 25.9901C85.4078 26.5491 85.5084 27.1047 85.7158 27.6238C85.9232 28.143 86.2331 28.615 86.627 29.0117C87.0209 29.4084 87.4908 29.7217 88.0084 29.9327C88.5261 30.1438 89.081 30.2483 89.64 30.2401C90.3395 30.2439 91.029 30.0742 91.6468 29.7461C92.2646 29.418 92.7914 28.9418 93.18 28.3601L91.73 27.3601C91.5136 27.7209 91.2072 28.0193 90.8408 28.2262C90.4745 28.433 90.0607 28.5412 89.64 28.5402C89.2068 28.5567 88.7787 28.4425 88.4113 28.2124C88.0439 27.9823 87.7542 27.647 87.58 27.2501L93.27 24.9001L93.06 24.4502ZM87.26 25.8701C87.2397 25.5608 87.2814 25.2506 87.3825 24.9576C87.4836 24.6646 87.6422 24.3947 87.8489 24.1638C88.0557 23.9328 88.3064 23.7454 88.5865 23.6126C88.8666 23.4797 89.1703 23.4041 89.48 23.3902C89.8025 23.3689 90.1243 23.4429 90.4052 23.6029C90.686 23.7629 90.9138 24.0019 91.06 24.2902L87.26 25.8701ZM82.64 29.9901H84.51V17.5001H82.64V29.9901ZM79.58 22.6902H79.52C79.2381 22.375 78.8929 22.1231 78.5068 21.9507C78.1208 21.7784 77.7027 21.6896 77.28 21.6902C76.1872 21.7431 75.1566 22.2146 74.4019 23.0067C73.6473 23.7989 73.2263 24.8511 73.2263 25.9452C73.2263 27.0393 73.6473 28.0914 74.4019 28.8836C75.1566 29.6757 76.1872 30.1472 77.28 30.2002C77.7037 30.2073 78.1239 30.1214 78.5109 29.9487C78.8979 29.7759 79.2423 29.5204 79.52 29.2002H79.58V29.8101C79.58 31.4401 78.71 32.3101 77.31 32.3101C76.8437 32.2992 76.3912 32.1498 76.0101 31.8809C75.629 31.612 75.3366 31.2358 75.17 30.8001L73.54 31.4802C73.8468 32.2265 74.3696 32.8642 75.0413 33.3114C75.713 33.7586 76.503 33.995 77.31 33.9901C79.5 33.9901 81.31 32.7001 81.31 29.5601V21.9202H79.54L79.58 22.6902ZM77.44 28.5702C76.795 28.5133 76.1946 28.2169 75.7573 27.7393C75.3199 27.2618 75.0773 26.6377 75.0773 25.9901C75.0773 25.3426 75.3199 24.7185 75.7573 24.241C76.1946 23.7634 76.795 23.467 77.44 23.4102C78.0689 23.4886 78.6476 23.7941 79.0671 24.2692C79.4866 24.7443 79.7181 25.3563 79.7181 25.9901C79.7181 26.624 79.4866 27.2359 79.0671 27.7111C78.6476 28.1862 78.0689 28.4917 77.44 28.5702ZM101.81 17.5001H97.34V30.0001H99.21V25.2602H101.82C102.353 25.2984 102.888 25.2265 103.392 25.0489C103.896 24.8712 104.358 24.5917 104.749 24.2276C105.14 23.8636 105.452 23.4229 105.665 22.933C105.879 22.4431 105.989 21.9145 105.989 21.3802C105.989 20.8458 105.879 20.3172 105.665 19.8273C105.452 19.3374 105.14 18.8967 104.749 18.5326C104.358 18.1686 103.896 17.8891 103.392 17.7114C102.888 17.5338 102.353 17.4619 101.82 17.5001H101.81ZM101.81 23.5001H99.16V19.2101H101.81C102.379 19.2101 102.924 19.4361 103.327 19.8384C103.729 20.2407 103.955 20.7863 103.955 21.3552C103.955 21.924 103.729 22.4696 103.327 22.8719C102.924 23.2741 102.379 23.5001 101.81 23.5001ZM113.34 21.7002C112.659 21.6595 111.981 21.8185 111.39 22.1579C110.798 22.4972 110.319 23.002 110.01 23.6101L111.67 24.3001C111.834 23.9985 112.081 23.7509 112.383 23.5876C112.685 23.4242 113.028 23.3522 113.37 23.3802C113.607 23.3524 113.848 23.3722 114.078 23.4385C114.307 23.5047 114.521 23.616 114.708 23.7659C114.894 23.9157 115.048 24.1012 115.162 24.3114C115.276 24.5216 115.346 24.7523 115.37 24.9901V25.1201C114.769 24.8021 114.1 24.6373 113.42 24.6402C111.63 24.6402 109.82 25.6402 109.82 27.4502C109.838 27.8361 109.933 28.2146 110.099 28.5632C110.265 28.9118 110.5 29.2236 110.789 29.4799C111.078 29.7363 111.416 29.9322 111.782 30.0559C112.148 30.1796 112.535 30.2286 112.92 30.2002C113.39 30.2282 113.858 30.1298 114.277 29.9152C114.695 29.7007 115.049 29.3778 115.3 28.9802H115.36V29.9802H117.16V25.1902C117.18 22.9701 115.52 21.7302 113.39 21.7302L113.34 21.7002ZM113.11 28.5501C112.5 28.5501 111.65 28.2401 111.65 27.4901C111.65 26.4901 112.71 26.1602 113.65 26.1602C114.244 26.1455 114.831 26.2905 115.35 26.5801C115.287 27.1215 115.031 27.6221 114.629 27.9896C114.227 28.3571 113.705 28.5669 113.16 28.5801L113.11 28.5501ZM123.69 21.9701L121.55 27.3902H121.49L119.27 21.9701H117.27L120.6 29.5501L118.7 33.7602H120.65L125.78 21.9701H123.69ZM106.88 29.9701H108.75V17.5001H106.98L106.88 29.9701Z" fill="white"/>
<path d="M10.43 7.5C10.1041 7.89111 9.93957 8.39179 9.97001 8.89999V31.02C9.93957 31.5282 10.1041 32.0289 10.43 32.42L10.5 32.49L22.89 20.1V19.81L10.51 7.5H10.43Z" fill="url(#paint0_linear_16_10)"/>
<path d="M26.98 24.2805L22.85 20.1505V19.8604L26.98 15.7305L27.07 15.7805L31.96 18.5605C33.36 19.3505 33.36 20.6505 31.96 21.4505L27.07 24.2305L26.98 24.2805Z" fill="url(#paint1_linear_16_10)"/>
<path d="M27.1201 24.22L22.9001 20L10.4301 32.5C10.7154 32.7509 11.0794 32.8941 11.4592 32.9051C11.839 32.916 12.2107 32.794 12.51 32.56L27.1201 24.26" fill="url(#paint2_linear_16_10)"/>
<path d="M27.1201 15.7801L12.51 7.50007C12.2107 7.26608 11.839 7.14402 11.4592 7.15498C11.0794 7.16593 10.7154 7.30921 10.4301 7.56007L22.89 20.0201L27.1201 15.7801Z" fill="url(#paint3_linear_16_10)"/>
<path opacity="0.2" d="M26.98 24.1299L12.46 32.3799C12.1713 32.5957 11.8205 32.7124 11.46 32.7124C11.0995 32.7124 10.7487 32.5957 10.46 32.3799L10.39 32.4499L10.46 32.5199C10.7481 32.7373 11.0991 32.8549 11.46 32.8549C11.8209 32.8549 12.172 32.7373 12.46 32.5199L27.07 24.2199L26.98 24.1299Z" fill="#010101"/>
<path opacity="0.12" d="M10.43 32.3199C10.1041 31.9288 9.93957 31.4281 9.97001 30.9199V31.0699C9.93957 31.5781 10.1041 32.0788 10.43 32.4699L10.5 32.3999L10.43 32.3199Z" fill="#010101"/>
<path opacity="0.12" d="M31.98 21.3L26.98 24.13L27.07 24.22L31.96 21.44C32.2386 21.3091 32.4777 21.1071 32.6533 20.8542C32.8289 20.6014 32.9347 20.3068 32.96 20C32.9059 20.2768 32.7895 20.5377 32.6198 20.7629C32.45 20.9881 32.2312 21.1718 31.98 21.3Z" fill="#010101"/>
<path opacity="0.25" d="M12.51 7.61995L31.98 18.7C32.2349 18.8258 32.4577 19.0084 32.631 19.2338C32.8044 19.4591 32.9237 19.7213 32.98 20C32.9547 19.6932 32.8489 19.3985 32.6733 19.1457C32.4977 18.8929 32.2586 18.6908 31.98 18.56L12.51 7.49996C11.11 6.70996 9.96997 7.36996 9.96997 8.96996V9.11995C9.97997 7.49995 11.12 6.82995 12.51 7.61995Z" fill="white"/>
<path d="M42.11 14.2697H41.37V12.2697H41.98C42.2672 11.9653 42.4842 11.6016 42.6155 11.2042C42.7468 10.8068 42.7893 10.3854 42.74 9.96973V6.96973H46.74V12.2297H47.41V14.2297H46.67V12.9997H42.12L42.11 14.2697ZM43.49 9.95972C43.5366 10.7664 43.3379 11.5682 42.92 12.2597H45.92V7.72974H43.46L43.49 9.95972Z" fill="white" stroke="white" stroke-width="0.2" stroke-miterlimit="10"/>
<path d="M53.41 12.2205C52.8254 12.8018 52.0345 13.1281 51.2101 13.1281C50.3856 13.1281 49.5946 12.8018 49.01 12.2205C48.4418 11.619 48.1252 10.8229 48.1252 9.99545C48.1252 9.16801 48.4418 8.37192 49.01 7.77045C49.2982 7.48019 49.6409 7.24983 50.0185 7.09262C50.3961 6.93542 50.8011 6.85449 51.2101 6.85449C51.6191 6.85449 52.024 6.93542 52.4016 7.09262C52.7792 7.24983 53.1219 7.48019 53.41 7.77045C53.9805 8.37078 54.2986 9.1673 54.2986 9.99545C54.2986 10.8236 53.9805 11.6201 53.41 12.2205ZM49.58 11.7205C50.013 12.1516 50.5991 12.3936 51.2101 12.3936C51.821 12.3936 52.4071 12.1516 52.84 11.7205C53.2673 11.2495 53.5039 10.6363 53.5039 10.0005C53.5039 9.36457 53.2673 8.75144 52.84 8.28046C52.4071 7.84933 51.821 7.60727 51.2101 7.60727C50.5991 7.60727 50.013 7.84933 49.58 8.28046C49.1528 8.75144 48.9161 9.36457 48.9161 10.0005C48.9161 10.6363 49.1528 11.2495 49.58 11.7205Z" fill="white" stroke="white" stroke-width="0.2" stroke-miterlimit="10"/>
<path d="M58.1801 13.1302C57.3486 13.1302 56.5512 12.8 55.9633 12.212C55.3753 11.6241 55.045 10.8267 55.045 9.99523C55.045 9.16378 55.3753 8.36639 55.9633 7.77847C56.5512 7.19054 57.3486 6.86022 58.1801 6.86022C58.5985 6.84986 59.0138 6.93446 59.3948 7.10766C59.7759 7.28086 60.1127 7.53816 60.38 7.86022L59.84 8.38024C59.6425 8.12949 59.3879 7.92964 59.0974 7.79742C58.8068 7.6652 58.4889 7.60445 58.17 7.62023C57.8631 7.61226 57.5577 7.66664 57.2724 7.78008C56.9871 7.89353 56.7277 8.06367 56.51 8.28024C56.0765 8.75403 55.836 9.37301 55.836 10.0153C55.836 10.6575 56.0765 11.2764 56.51 11.7502C56.7277 11.9668 56.9871 12.1369 57.2724 12.2504C57.5577 12.3638 57.8631 12.4182 58.17 12.4102C58.5202 12.4018 58.8642 12.3157 59.1772 12.1584C59.4902 12.001 59.7643 11.7763 59.98 11.5002L60.5201 12.0402C60.2479 12.3704 59.9065 12.6366 59.5201 12.8202C59.1017 13.021 58.6441 13.1269 58.1801 13.1302Z" fill="white" stroke="white" stroke-width="0.2" stroke-miterlimit="10"/>
<path d="M63.68 13H62.91V7.73999H61.23V7H65.35V7.73999H63.68V13Z" fill="white" stroke="white" stroke-width="0.2" stroke-miterlimit="10"/>
<path d="M70.65 7L68.38 12.06C68.288 12.3625 68.1034 12.6284 67.8523 12.8204C67.6011 13.0123 67.296 13.1207 66.98 13.13C66.7733 13.1274 66.5693 13.0832 66.38 13L66.58 12.29C66.7015 12.3608 66.8394 12.3987 66.98 12.4C67.127 12.4111 67.2738 12.3761 67.4 12.3C67.5205 12.198 67.6133 12.0673 67.67 11.92L67.89 11.44L65.89 7.01001H66.8L68.28 10.45L69.73 7.01001L70.65 7Z" fill="white" stroke="white" stroke-width="0.2" stroke-miterlimit="10"/>
<path d="M71.52 13V7H75.86V13H75.09V7.73999H72.29V13H71.52Z" fill="white" stroke="white" stroke-width="0.2" stroke-miterlimit="10"/>
<path d="M77.23 13V7H77.98V9.57001H80.98V7H81.75V13H80.98V10.29H77.98V13H77.23Z" fill="white" stroke="white" stroke-width="0.2" stroke-miterlimit="10"/>
<path d="M88.0601 12.2205C87.4755 12.8018 86.6845 13.1281 85.86 13.1281C85.0356 13.1281 84.2446 12.8018 83.66 12.2205C83.0918 11.619 82.7753 10.8229 82.7753 9.99545C82.7753 9.16801 83.0918 8.37192 83.66 7.77045C83.9482 7.48019 84.2909 7.24983 84.6685 7.09262C85.0461 6.93542 85.451 6.85449 85.86 6.85449C86.269 6.85449 86.674 6.93542 87.0516 7.09262C87.4292 7.24983 87.7719 7.48019 88.0601 7.77045C88.6305 8.37078 88.9486 9.1673 88.9486 9.99545C88.9486 10.8236 88.6305 11.6201 88.0601 12.2205ZM84.23 11.7205C84.663 12.1516 85.2491 12.3936 85.86 12.3936C86.471 12.3936 87.0571 12.1516 87.4901 11.7205C87.9173 11.2495 88.1539 10.6363 88.1539 10.0005C88.1539 9.36457 87.9173 8.75144 87.4901 8.28046C87.0571 7.84933 86.471 7.60727 85.86 7.60727C85.2491 7.60727 84.663 7.84933 84.23 8.28046C83.8028 8.75144 83.5662 9.36457 83.5662 10.0005C83.5662 10.6363 83.8028 11.2495 84.23 11.7205Z" fill="white" stroke="white" stroke-width="0.2" stroke-miterlimit="10"/>
<path d="M92.09 13.0003V7.00031H94.26C94.7106 6.9918 95.1472 7.15644 95.48 7.46031C95.6471 7.60532 95.7803 7.78529 95.8701 7.98747C95.96 8.18965 96.0043 8.40911 96 8.63032C96.0047 8.89688 95.9279 9.15853 95.78 9.38032C95.6331 9.59575 95.4287 9.76554 95.19 9.87031C95.4801 9.96633 95.7344 10.1476 95.92 10.3903C96.1101 10.6326 96.2123 10.9323 96.21 11.2403C96.2151 11.4708 96.1693 11.6997 96.076 11.9105C95.9827 12.1214 95.8441 12.3091 95.67 12.4603C95.3218 12.7815 94.8636 12.9569 94.39 12.9503L92.09 13.0003ZM92.86 9.57032H94.26C94.3908 9.57578 94.5211 9.55266 94.642 9.50257C94.7629 9.45249 94.8714 9.37663 94.96 9.28031C95.0428 9.19764 95.1085 9.09945 95.1534 8.99134C95.1982 8.88324 95.2213 8.76735 95.2213 8.65031C95.2213 8.53327 95.1982 8.41738 95.1534 8.30927C95.1085 8.20117 95.0428 8.10297 94.96 8.0203C94.8764 7.92578 94.7731 7.85082 94.6573 7.8007C94.5415 7.75058 94.4161 7.72656 94.29 7.73033H92.86V9.57032ZM92.86 12.2603H94.41C94.5454 12.2649 94.6802 12.2394 94.8046 12.1858C94.9291 12.1322 95.0402 12.0518 95.13 11.9503C95.3063 11.7675 95.4064 11.5243 95.41 11.2703C95.41 11.0051 95.3046 10.7507 95.1171 10.5632C94.9295 10.3757 94.6752 10.2703 94.41 10.2703H92.89L92.86 12.2603Z" fill="white" stroke="white" stroke-width="0.2" stroke-miterlimit="10"/>
</g>
<defs>
<linearGradient id="paint0_linear_16_10" x1="21.8" y1="8.71" x2="5.02003" y2="25.49" gradientUnits="userSpaceOnUse">
<stop stop-color="#4998D3"/>
<stop offset="0.01" stop-color="#4A99D3"/>
<stop offset="0.26" stop-color="#42BAEB"/>
<stop offset="0.51" stop-color="#41C7F2"/>
<stop offset="0.76" stop-color="#56C9E9"/>
<stop offset="1" stop-color="#5BCAE8"/>
</linearGradient>
<linearGradient id="paint1_linear_16_10" x1="33.83" y1="20.0005" x2="9.63995" y2="20.0005" gradientUnits="userSpaceOnUse">
<stop stop-color="#FEE000"/>
<stop offset="0.41" stop-color="#FEBD11"/>
<stop offset="0.78" stop-color="#FAA51A"/>
<stop offset="1" stop-color="#F99C1C"/>
</linearGradient>
<linearGradient id="paint2_linear_16_10" x1="24.8301" y1="22.3" x2="2.07006" y2="45.05" gradientUnits="userSpaceOnUse">
<stop stop-color="#EF4049"/>
<stop offset="1" stop-color="#C31E63"/>
</linearGradient>
<linearGradient id="paint3_linear_16_10" x1="7.30005" y1="0.180074" x2="17.46" y2="10.3401" gradientUnits="userSpaceOnUse">
<stop stop-color="#32A072"/>
<stop offset="0.07" stop-color="#2DA771"/>
<stop offset="0.48" stop-color="#4BBA71"/>
<stop offset="0.8" stop-color="#5EBD6B"/>
<stop offset="1" stop-color="#66BE69"/>
</linearGradient>
<clipPath id="clip0_16_10">
<rect width="135" height="40" fill="white"/>
</clipPath>
</defs>
</svg>
