<svg width="135" height="40" viewBox="0 0 135 40" fill="none" xmlns="http://www.w3.org/2000/svg">
<path d="M130.197 40H4.729C2.122 40 0 37.872 0 35.267V4.726C0 2.12 2.122 0 4.729 0H130.197C132.803 0 135 2.12 135 4.726V35.267C135 37.872 132.803 40 130.197 40Z" fill="#A6A6A6"/>
<path d="M134.032 35.2671C134.032 37.3832 132.318 39.0972 130.198 39.0972H4.72901C2.61001 39.0972 0.890015 37.3832 0.890015 35.2671V4.72372C0.890015 2.6087 2.61001 0.888672 4.72901 0.888672H130.197C132.318 0.888672 134.031 2.6087 134.031 4.72372L134.032 35.2671Z" fill="black"/>
<path d="M30.128 19.785C30.099 16.5621 32.767 14.9941 32.889 14.9211C31.378 12.7182 29.036 12.4172 28.213 12.3932C26.246 12.1862 24.338 13.5702 23.336 13.5702C22.314 13.5702 20.771 12.4132 19.108 12.4472C16.968 12.4802 14.966 13.7191 13.868 15.6431C11.602 19.566 13.292 25.3309 15.463 28.5019C16.549 30.0549 17.818 31.7888 19.479 31.7278C21.104 31.6608 21.711 30.6918 23.672 30.6918C25.615 30.6918 26.185 31.7278 27.879 31.6888C29.623 31.6608 30.721 30.1289 31.769 28.5619C33.024 26.7819 33.528 25.0289 33.548 24.9389C33.507 24.9249 30.161 23.648 30.128 19.785Z" fill="white"/>
<path d="M26.9279 10.3055C27.8019 9.21232 28.3999 7.72507 28.2339 6.21582C26.9689 6.27183 25.3869 7.09097 24.4759 8.16015C23.6699 9.1023 22.9499 10.6466 23.1359 12.0988C24.5569 12.2048 26.0159 11.3817 26.9279 10.3055Z" fill="white"/>
<path d="M53.645 31.5063H51.374L50.13 27.5973H45.8059L44.6209 31.5063H42.4099L46.694 18.1982H49.34L53.645 31.5063ZM49.755 25.9573L48.63 22.4823C48.511 22.1273 48.288 21.2912 47.959 19.9752H47.919C47.788 20.5412 47.577 21.3772 47.287 22.4823L46.1819 25.9573H49.755Z" fill="white"/>
<path d="M64.662 26.5885C64.662 28.2206 64.221 29.5108 63.339 30.4579C62.549 31.301 61.568 31.722 60.397 31.722C59.133 31.722 58.225 31.268 57.672 30.3599H57.632V35.4154H55.5V25.0673C55.5 24.0412 55.473 22.9881 55.421 21.908H57.296L57.415 23.4291H57.455C58.166 22.283 59.245 21.7109 60.693 21.7109C61.825 21.7109 62.77 22.158 63.526 23.0531C64.284 23.9492 64.662 25.1273 64.662 26.5885ZM62.49 26.6665C62.49 25.7324 62.28 24.9623 61.858 24.3562C61.397 23.7242 60.778 23.4081 60.002 23.4081C59.476 23.4081 58.998 23.5841 58.571 23.9312C58.143 24.2812 57.863 24.7383 57.732 25.3043C57.666 25.5684 57.633 25.7844 57.633 25.9544V27.5546C57.633 28.2527 57.847 28.8417 58.275 29.3228C58.703 29.8038 59.259 30.0438 59.943 30.0438C60.746 30.0438 61.371 29.7338 61.818 29.1157C62.266 28.4967 62.49 27.6806 62.49 26.6665Z" fill="white"/>
<path d="M75.699 26.5885C75.699 28.2206 75.258 29.5108 74.375 30.4579C73.586 31.301 72.605 31.722 71.434 31.722C70.17 31.722 69.262 31.268 68.71 30.3599H68.67V35.4154H66.538V25.0673C66.538 24.0412 66.511 22.9881 66.459 21.908H68.334L68.453 23.4291H68.493C69.203 22.283 70.282 21.7109 71.731 21.7109C72.862 21.7109 73.807 22.158 74.565 23.0531C75.32 23.9492 75.699 25.1273 75.699 26.5885ZM73.527 26.6665C73.527 25.7324 73.316 24.9623 72.894 24.3562C72.433 23.7242 71.816 23.4081 71.039 23.4081C70.512 23.4081 70.035 23.5841 69.607 23.9312C69.179 24.2812 68.9 24.7383 68.769 25.3043C68.704 25.5684 68.67 25.7844 68.67 25.9544V27.5546C68.67 28.2527 68.884 28.8417 69.31 29.3228C69.738 29.8028 70.294 30.0438 70.98 30.0438C71.783 30.0438 72.408 29.7338 72.855 29.1157C73.303 28.4967 73.527 27.6806 73.527 26.6665Z" fill="white"/>
<path d="M88.0389 27.7719C88.0389 28.9041 87.6459 29.8251 86.8569 30.5362C85.9899 31.3133 84.7829 31.7013 83.232 31.7013C81.8 31.7013 80.652 31.4253 79.783 30.8723L80.277 29.0951C81.213 29.6611 82.24 29.9452 83.359 29.9452C84.162 29.9452 84.7869 29.7631 85.2359 29.4011C85.6829 29.0391 85.9059 28.553 85.9059 27.947C85.9059 27.4069 85.7219 26.9519 85.3529 26.5828C84.9859 26.2138 84.3729 25.8708 83.5169 25.5537C81.187 24.6847 80.023 23.4115 80.023 21.7374C80.023 20.6433 80.431 19.7462 81.248 19.0481C82.062 18.349 83.1479 18 84.5059 18C85.7169 18 86.7229 18.211 87.5259 18.6321L86.9929 20.3702C86.2429 19.9622 85.3949 19.7582 84.4459 19.7582C83.696 19.7582 83.11 19.9432 82.69 20.3112C82.335 20.6403 82.157 21.0413 82.157 21.5163C82.157 22.0424 82.36 22.4774 82.768 22.8195C83.123 23.1355 83.768 23.4775 84.704 23.8466C85.8489 24.3076 86.6899 24.8467 87.2309 25.4647C87.7699 26.0808 88.0389 26.8519 88.0389 27.7719Z" fill="white"/>
<path d="M95.088 23.5072H92.738V28.1658C92.738 29.3507 93.152 29.9427 93.982 29.9427C94.363 29.9427 94.679 29.9097 94.929 29.8437L94.988 31.4625C94.568 31.6195 94.015 31.6985 93.33 31.6985C92.488 31.6985 91.83 31.4415 91.355 30.9286C90.882 30.4146 90.644 29.5527 90.644 28.3418V23.5052H89.244V21.9054H90.644V20.1485L92.738 19.5166V21.9054H95.088V23.5072Z" fill="white"/>
<path d="M105.691 26.6272C105.691 28.102 105.269 29.3129 104.427 30.2597C103.544 31.2346 102.372 31.7205 100.911 31.7205C99.503 31.7205 98.382 31.2536 97.546 30.3197C96.71 29.3859 96.292 28.207 96.292 26.7862C96.292 25.2994 96.722 24.0816 97.585 23.1347C98.446 22.1868 99.608 21.7129 101.069 21.7129C102.477 21.7129 103.61 22.1798 104.465 23.1147C105.283 24.0216 105.691 25.1924 105.691 26.6272ZM103.479 26.6962C103.479 25.8113 103.29 25.0524 102.907 24.4195C102.46 23.6536 101.821 23.2717 100.993 23.2717C100.136 23.2717 99.485 23.6546 99.038 24.4195C98.655 25.0534 98.466 25.8243 98.466 26.7362C98.466 27.6211 98.655 28.38 99.038 29.0119C99.499 29.7778 100.143 30.1597 100.974 30.1597C101.788 30.1597 102.427 29.7698 102.888 28.9919C103.281 28.347 103.479 27.5801 103.479 26.6962Z" fill="white"/>
<path d="M112.621 23.7833C112.41 23.7443 112.185 23.7243 111.949 23.7243C111.199 23.7243 110.619 24.0073 110.211 24.5744C109.856 25.0745 109.678 25.7066 109.678 26.4697V31.5056H107.547L107.567 24.9305C107.567 23.8243 107.54 22.8171 107.487 21.909H109.344L109.422 23.7453H109.481C109.706 23.1142 110.061 22.6061 110.547 22.225C111.022 21.882 111.535 21.7109 112.088 21.7109C112.285 21.7109 112.463 21.7249 112.621 21.7499V23.7833Z" fill="white"/>
<path d="M122.156 26.2527C122.156 26.6347 122.131 26.9567 122.078 27.2198H115.682C115.707 28.1678 116.016 28.8929 116.61 29.3929C117.149 29.8399 117.846 30.064 118.702 30.064C119.649 30.064 120.513 29.913 121.29 29.6099L121.624 31.09C120.716 31.4861 119.644 31.6831 118.407 31.6831C116.919 31.6831 115.751 31.245 114.901 30.37C114.053 29.4949 113.628 28.3198 113.628 26.8457C113.628 25.3986 114.023 24.1935 114.814 23.2325C115.642 22.2064 116.761 21.6934 118.169 21.6934C119.552 21.6934 120.599 22.2064 121.31 23.2325C121.873 24.0475 122.156 25.0556 122.156 26.2527ZM120.123 25.6996C120.137 25.0676 119.998 24.5216 119.709 24.0605C119.34 23.4675 118.773 23.1715 118.01 23.1715C117.313 23.1715 116.746 23.4605 116.313 24.0405C115.958 24.5016 115.747 25.0546 115.682 25.6986H120.123V25.6996Z" fill="white"/>
<path d="M43.424 7.27223C43.651 7.1362 43.907 7.02217 44.195 6.92814C44.482 6.83412 44.82 6.78711 45.209 6.78711C45.836 6.78711 46.33 6.93615 46.692 7.23322C47.054 7.5303 47.235 7.9314 47.235 8.43653C47.235 8.83763 47.114 9.17371 46.872 9.44578C46.63 9.71785 46.32 9.8989 45.945 9.98892V10.0179C46.152 10.0509 46.348 10.107 46.532 10.188C46.717 10.269 46.879 10.377 47.017 10.5131C47.156 10.6491 47.266 10.8071 47.347 10.9892C47.427 11.1702 47.468 11.3703 47.468 11.5913C47.468 11.9534 47.395 12.2575 47.249 12.5036C47.103 12.7496 46.913 12.9497 46.677 13.1057C46.442 13.2607 46.178 13.3728 45.887 13.4398C45.596 13.5068 45.305 13.5418 45.014 13.5418C44.703 13.5418 44.396 13.5088 44.092 13.4448C43.788 13.3808 43.507 13.2738 43.248 13.1247L43.51 12.3195C43.678 12.4035 43.895 12.4846 44.16 12.5626C44.425 12.6406 44.693 12.6786 44.965 12.6786C45.411 12.6786 45.756 12.5786 45.998 12.3785C46.24 12.1775 46.362 11.9094 46.362 11.5733C46.362 11.3463 46.313 11.1612 46.216 11.0152C46.118 10.8691 45.992 10.7551 45.837 10.6701C45.682 10.5861 45.509 10.5281 45.318 10.496C45.127 10.464 44.938 10.447 44.751 10.447H44.314V9.64983H44.751C44.951 9.64983 45.137 9.62483 45.309 9.57181C45.48 9.5208 45.629 9.44778 45.755 9.35376C45.881 9.25974 45.98 9.14771 46.051 9.01867C46.121 8.88964 46.157 8.7436 46.157 8.58156C46.157 8.29049 46.053 8.06243 45.846 7.89739C45.639 7.73235 45.361 7.64933 45.012 7.64933C44.773 7.64933 44.533 7.68834 44.294 7.76536C44.055 7.84338 43.841 7.9274 43.653 8.01742L43.424 7.27223Z" fill="white"/>
<path d="M51.755 13.434L51.678 12.8908H51.649C51.333 13.3239 50.874 13.541 50.272 13.541C50.058 13.541 49.865 13.505 49.69 13.434C49.515 13.3629 49.363 13.2659 49.234 13.1429C49.104 13.0198 49.005 12.8747 48.933 12.7057C48.862 12.5376 48.827 12.3525 48.827 12.1525C48.827 11.5642 49.066 11.1221 49.545 10.8279C50.024 10.5338 50.702 10.3868 51.582 10.3868V10.2997C51.582 9.67849 51.256 9.36836 50.604 9.36836C50.139 9.36836 49.729 9.48541 49.375 9.7175L49.162 9.02923C49.595 8.75812 50.134 8.62207 50.779 8.62207C52.012 8.62207 52.629 9.27233 52.629 10.5728V12.3095C52.629 12.7947 52.652 13.1699 52.697 13.435H51.755V13.434ZM51.61 11.086C51.025 11.086 50.589 11.1601 50.303 11.3091C50.017 11.4582 49.874 11.7013 49.874 12.0374C49.874 12.2835 49.941 12.4676 50.076 12.5906C50.211 12.7137 50.382 12.7747 50.588 12.7747C50.723 12.7747 50.851 12.7507 50.974 12.7017C51.096 12.6537 51.203 12.5866 51.296 12.5026C51.39 12.4186 51.465 12.3165 51.524 12.1965C51.582 12.0764 51.61 11.9494 51.61 11.8133V11.086Z" fill="white"/>
<path d="M57.683 8.71875V9.58182H55.723V13.4331H54.676V8.71875H57.683Z" fill="white"/>
<path d="M63.677 11.0193C63.677 11.3943 63.625 11.7374 63.522 12.0474C63.418 12.3584 63.275 12.6234 63.09 12.8425C62.906 13.0625 62.686 13.2345 62.431 13.3565C62.175 13.4795 61.893 13.5415 61.582 13.5415C60.961 13.5415 60.515 13.3185 60.243 12.8725H60.223V15.3557H59.175V10.2722C59.175 10.0202 59.172 9.76618 59.165 9.51015C59.159 9.25513 59.149 8.9911 59.137 8.71908H60.058L60.117 9.46615H60.137C60.486 8.9041 61.016 8.62207 61.728 8.62207C62.005 8.62207 62.263 8.68008 62.499 8.79609C62.735 8.9131 62.94 9.07611 63.115 9.28613C63.29 9.49615 63.427 9.74817 63.527 10.0432C63.627 10.3382 63.677 10.6633 63.677 11.0193ZM62.611 11.0583C62.611 10.8253 62.583 10.6103 62.528 10.4132C62.473 10.2162 62.392 10.0482 62.286 9.90919C62.18 9.77018 62.05 9.66017 61.898 9.57916C61.746 9.49815 61.576 9.45815 61.388 9.45815C61.24 9.45815 61.094 9.49115 60.951 9.55516C60.808 9.61916 60.684 9.70717 60.578 9.81718C60.471 9.92719 60.386 10.0602 60.321 10.2152C60.256 10.3702 60.223 10.5352 60.223 10.7103V11.4963C60.223 11.6704 60.25 11.8324 60.306 11.9814C60.361 12.1304 60.438 12.2594 60.538 12.3694C60.638 12.4794 60.758 12.5654 60.897 12.6264C61.036 12.6884 61.189 12.7184 61.357 12.7184C61.752 12.7184 62.059 12.5684 62.279 12.2674C62.499 11.9664 62.611 11.5623 62.611 11.0583Z" fill="white"/>
<path d="M69.3049 8.71875L68.1109 11.9885C67.8269 12.7647 67.5499 13.3999 67.2819 13.895C67.0129 14.3901 66.757 14.7502 66.511 14.9772C66.149 15.3003 65.764 15.4983 65.356 15.5684L65.104 14.6862C65.375 14.6151 65.634 14.4761 65.88 14.2691C66.125 14.062 66.322 13.8039 66.472 13.4929C66.524 13.3898 66.549 13.3188 66.549 13.2798C66.549 13.2408 66.5289 13.1668 66.4909 13.0568L64.783 8.71975H65.937L66.8299 11.3494C66.8759 11.4724 66.921 11.6114 66.966 11.7665C67.012 11.9215 67.0599 12.0935 67.1119 12.2806H67.1319C67.1639 12.1766 67.1999 12.0465 67.2379 11.8875C67.2769 11.7295 67.3289 11.5464 67.3929 11.3394L68.1889 8.71975H69.3049V8.71875Z" fill="white"/>
<path d="M71.1189 10.6785H71.6029C71.958 10.6785 72.234 10.6145 72.427 10.4844C72.62 10.3544 72.718 10.1964 72.718 10.0083C72.718 9.8143 72.636 9.65927 72.47 9.54325C72.306 9.42722 72.077 9.36821 71.786 9.36821C71.598 9.36821 71.409 9.39922 71.2199 9.46023C71.0289 9.52224 70.8529 9.59826 70.6909 9.68827L70.4199 9.01014C70.6909 8.86212 70.9609 8.7601 71.2309 8.70509C71.499 8.65008 71.768 8.62207 72.04 8.62207C72.255 8.62207 72.47 8.64308 72.686 8.68508C72.901 8.72709 73.094 8.7981 73.262 8.89812C73.43 8.99814 73.569 9.12917 73.674 9.2912C73.781 9.45323 73.834 9.65327 73.834 9.89331C73.834 10.0423 73.805 10.1734 73.746 10.2864C73.689 10.3994 73.611 10.4994 73.514 10.5864C73.418 10.6735 73.309 10.7455 73.19 10.7995C73.071 10.8545 72.948 10.8955 72.827 10.9215V10.9505C72.981 10.9705 73.132 11.0095 73.278 11.0675C73.423 11.1255 73.553 11.2016 73.671 11.2956C73.786 11.3896 73.88 11.5026 73.952 11.6346C74.022 11.7677 74.057 11.9177 74.057 12.0857C74.057 12.3638 73.991 12.5968 73.854 12.7839C73.719 12.9719 73.545 13.1199 73.334 13.23C73.125 13.34 72.893 13.419 72.641 13.468C72.389 13.516 72.143 13.541 71.905 13.541C71.614 13.541 71.3249 13.51 71.0419 13.449C70.7569 13.387 70.5009 13.292 70.2739 13.1629L70.5469 12.4738C70.7149 12.5648 70.9059 12.6408 71.1229 12.7019C71.3399 12.7629 71.561 12.7939 71.787 12.7939C72.142 12.7939 72.416 12.7249 72.607 12.5858C72.796 12.4468 72.892 12.2738 72.892 12.0667C72.892 11.9307 72.861 11.8167 72.796 11.7227C72.731 11.6286 72.64 11.5526 72.525 11.4946C72.408 11.4366 72.273 11.3956 72.117 11.3736C71.963 11.3506 71.793 11.3396 71.613 11.3396H71.1189V10.6785Z" fill="white"/>
<path d="M76.7151 8.7188V10.387C76.7151 10.769 76.7091 11.112 76.6951 11.415C76.6811 11.7191 76.6661 12.0391 76.6461 12.3751L76.6661 12.3941C76.7891 12.1481 76.9101 11.9081 77.0291 11.6711C77.1501 11.435 77.271 11.194 77.394 10.948L78.558 8.7168H79.915V13.4312H78.925V11.7631C78.925 11.414 78.935 11.065 78.95 10.716C78.966 10.3659 78.983 10.0139 79.003 9.65788H78.954C78.845 9.94891 78.735 10.2009 78.624 10.415C78.515 10.628 78.405 10.848 78.296 11.075C78.095 11.463 77.896 11.8511 77.698 12.2391C77.501 12.6272 77.2921 13.0252 77.0731 13.4322H75.7161V8.7188H76.7151Z" fill="white"/>
<path d="M85.4451 8.71875V9.58182H84.01V13.4331H82.98V9.58182H81.554V8.71875H85.4451Z" fill="white"/>
<path d="M90.7891 10.8535C90.7891 10.9435 90.7851 11.0295 90.7791 11.1105C90.7731 11.1915 90.7631 11.2645 90.7501 11.3285H87.607C87.621 11.7745 87.761 12.1196 88.029 12.3616C88.297 12.6036 88.652 12.7256 89.091 12.7256C89.55 12.7256 89.974 12.6516 90.3621 12.5026L90.5261 13.2307C90.0791 13.4247 89.553 13.5217 88.944 13.5217C88.577 13.5217 88.247 13.4647 87.956 13.3517C87.665 13.2387 87.419 13.0786 87.218 12.8716C87.019 12.6646 86.864 12.4156 86.757 12.1246C86.652 11.8335 86.599 11.5075 86.599 11.1455C86.599 10.7835 86.652 10.4484 86.757 10.1414C86.864 9.83438 87.015 9.56736 87.208 9.34134C87.403 9.11432 87.638 8.93731 87.911 8.8073C88.186 8.67829 88.493 8.61328 88.829 8.61328C89.126 8.61328 89.395 8.66629 89.64 8.77329C89.882 8.8793 90.0891 9.03132 90.2591 9.22933C90.4311 9.42635 90.5621 9.66337 90.6521 9.93739C90.7441 10.2114 90.7891 10.5174 90.7891 10.8535ZM89.789 10.5824C89.789 10.2134 89.701 9.91439 89.523 9.68537C89.345 9.45635 89.088 9.34034 88.752 9.34034C88.447 9.34034 88.19 9.45635 87.977 9.68937C87.764 9.92239 87.641 10.2194 87.608 10.5824H89.789Z" fill="white"/>
<path d="M95.01 8.75834C95.198 8.72635 95.436 8.70036 95.727 8.68036C96.018 8.66037 96.315 8.65137 96.62 8.65137C96.813 8.65137 97.032 8.66336 97.274 8.68536C97.516 8.70735 97.749 8.75934 97.967 8.84032C98.188 8.9213 98.371 9.04228 98.52 9.20424C98.669 9.3662 98.745 9.58515 98.745 9.86308C98.745 10.006 98.718 10.134 98.667 10.246C98.614 10.359 98.546 10.4579 98.458 10.5419C98.37 10.6259 98.27 10.6959 98.157 10.7499C98.044 10.8049 97.927 10.8458 97.803 10.8708L97.813 10.8998C98.155 10.9578 98.434 11.0808 98.647 11.2687C98.86 11.4567 98.967 11.7146 98.967 12.0446C98.967 12.3745 98.875 12.6364 98.696 12.8304C98.514 13.0243 98.292 13.1703 98.026 13.2673C97.76 13.3643 97.481 13.4262 97.186 13.4522C96.893 13.4772 96.629 13.4912 96.397 13.4912C96.137 13.4912 95.883 13.4852 95.635 13.4712C95.385 13.4582 95.178 13.4452 95.01 13.4322V8.75834ZM96.018 10.6399H96.551C96.713 10.6399 96.867 10.6289 97.012 10.6059C97.158 10.5839 97.285 10.5479 97.395 10.4999C97.506 10.4509 97.59 10.387 97.653 10.306C97.714 10.225 97.745 10.127 97.745 10.01C97.745 9.7971 97.657 9.64013 97.477 9.54016C97.299 9.44018 97.02 9.39019 96.639 9.39019C96.53 9.39019 96.434 9.39319 96.352 9.40019C96.272 9.40619 96.161 9.41619 96.018 9.42918V10.6399ZM96.018 12.7244C96.147 12.7374 96.256 12.7464 96.342 12.7534C96.43 12.7604 96.531 12.7634 96.649 12.7634C96.792 12.7634 96.936 12.7544 97.085 12.7344C97.233 12.7154 97.37 12.6784 97.493 12.6234C97.616 12.5694 97.714 12.4955 97.788 12.4015C97.862 12.3085 97.901 12.1845 97.901 12.0306C97.901 11.7606 97.78 11.5747 97.542 11.4717C97.302 11.3687 96.98 11.3177 96.571 11.3177H96.018V12.7244Z" fill="white"/>
</svg>
