<svg width="23" height="23" viewBox="0 0 23 23" fill="none" xmlns="http://www.w3.org/2000/svg">
<g clip-path="url(#clip0_17_0)">
<path d="M11.5038 5.59473C8.24262 5.59473 5.60242 8.23781 5.60242 11.4961C5.60242 14.7574 8.2455 17.3976 11.5038 17.3976C14.765 17.3976 17.4052 14.7545 17.4052 11.4961C17.4052 8.23494 14.7622 5.59473 11.5038 5.59473ZM11.5038 15.3266C9.38687 15.3266 7.67337 13.6121 7.67337 11.4961C7.67337 9.38014 9.38783 7.66569 11.5038 7.66569C13.6198 7.66569 15.3343 9.38014 15.3343 11.4961C15.3352 13.6121 13.6208 15.3266 11.5038 15.3266Z" fill="black"/>
<path d="M16.2416 0.0732221C14.1256 -0.0254862 8.88444 -0.0206946 6.76652 0.0732221C4.90544 0.16043 3.26381 0.609888 1.94035 1.93335C-0.271479 4.14518 0.0112295 7.1256 0.0112295 11.4966C0.0112295 15.9701 -0.237937 18.8815 1.94035 21.0598C4.16081 23.2793 7.18436 22.9889 11.5036 22.9889C15.9349 22.9889 17.4644 22.9918 19.0313 22.3851C21.1616 21.5581 22.7697 19.6539 22.9269 16.2336C23.0266 14.1166 23.0208 8.87647 22.9269 6.75855C22.7372 2.7211 20.5704 0.272555 16.2416 0.0732221ZM19.5909 19.5964C18.141 21.0463 16.1294 20.917 11.4758 20.917C6.68411 20.917 4.76265 20.9879 3.36061 19.582C1.74581 17.9749 2.03811 15.3941 2.03811 11.4812C2.03811 6.18643 1.49473 2.37322 6.80869 2.10105C8.02961 2.05793 8.38898 2.04356 11.4624 2.04356L11.5055 2.0723C16.6124 2.0723 20.6192 1.53755 20.8598 6.85055C20.9144 8.06285 20.9269 8.42701 20.9269 11.4956C20.9259 16.2317 21.016 18.1646 19.5909 19.5964Z" fill="black"/>
<path d="M17.6391 6.74148C18.4007 6.74148 19.0182 6.12406 19.0182 5.36244C19.0182 4.60082 18.4007 3.9834 17.6391 3.9834C16.8775 3.9834 16.2601 4.60082 16.2601 5.36244C16.2601 6.12406 16.8775 6.74148 17.6391 6.74148Z" fill="black"/>
</g>
<defs>
<clipPath id="clip0_17_0">
<rect width="23" height="23" fill="white"/>
</clipPath>
</defs>
</svg>
