<svg width="16" height="16" viewBox="0 0 16 16" fill="none" xmlns="http://www.w3.org/2000/svg">
<g clip-path="url(#clip0_31_1068)">
<path d="M8.88295 7.99818L15.816 14.9312C16.0601 15.1753 16.0601 15.5711 15.816 15.8151C15.5719 16.0592 15.1761 16.0592 14.9321 15.8151L7.99902 8.88208L1.066 15.8151C0.821905 16.0592 0.426155 16.0592 0.182093 15.8151C-0.0619687 15.571 -0.0619999 15.1753 0.182093 14.9312L7.11511 7.99821L0.182093 1.06516C-0.0619999 0.821068 -0.0619999 0.425319 0.182093 0.181257C0.304124 0.059226 0.464093 -0.00177383 0.624061 -0.00177383C0.78403 -0.00177383 0.943967 0.059226 1.06603 0.181257L7.99902 7.11427L14.932 0.181257C15.0541 0.059226 15.214 -0.00177383 15.374 -0.00177383C15.534 -0.00177383 15.6939 0.059226 15.816 0.181257C16.0601 0.42535 16.0601 0.821099 15.816 1.06516L8.88295 7.99818Z" fill="black"/>
</g>
<defs>
<clipPath id="clip0_31_1068">
<rect width="16" height="16" fill="white" transform="matrix(1 0 0 -1 0 16)"/>
</clipPath>
</defs>
</svg>